# xmcd
#
# Track frame offsets:
#	150
#	14797
#	29895
#	45047
#	60746
#	74712
#	89129
#	104729
#	118662
#	134220
#
# Disc length: 1986 seconds
#
# Revision: 0
# Processed by: cddbd v1.5.2PL0 Copyright (c) Steve Scherf et al.
# Submitted via: EasyCDDAExtractor 16.0.6.1
#
DISCID=a407c00a
DTITLE=Συλλογικός δίσκος - Ιστορία ρεμπέτικου και λαϊκού 09-1
DYEAR=2007
DGENRE=Ποικίλη
TTITLE0=Καζαντζίδης Στέλιος-Χιώτης Μανώλης - Θεσσαλονίκη μου [Μ. Χιώτης-Χρ. Κο
TTITLE0=λοκοτρώνης]
TTITLE1=Γαβαλάς Πάνος-Καλδάρας Απόστολος - Εσύ δεν θέλεις χάϊδεμα [Απ. Καλδάρα
TTITLE1=ς]
TTITLE2=Γκρέϋ Καίτη - Φελάχες γλυκές [Βασ. Τσιτσάνης]
TTITLE3=Πάνου Πόλυ - Ευτυχούλα, Ευτυχιώ [Γ. Ζαμπέτας-Χ. Βασιλειάδης]
TTITLE4=Γαβαλάς Πάνος-Καλδάρας Απόστολος - Ο τεμπέλης [Π. Γαβαλάς]
TTITLE5=Χατζοπούλου Μαριάννα - Άλλος σ' αγάπησε κι άλλο σε παίρνει[Ά.Σμυρναίος
TTITLE5=Κ.Μάνεσης]
TTITLE6=Περπινιάδης Βαγγέλης - Είναι ο πόνος μου μεγάλος [Βαγγ. Περπινιάδης]
TTITLE7=Μπιθικώτσης Γρηγόρης-Τζόϋ Γεωργία-Τσιτσάνης Β. - Ο τσολιάς [Β. Τσιτσάν
TTITLE7=ης-Ν. Λούπας]
TTITLE8=Καζαντζίδης Στέλιος-Μαρινέλλα - Νίτσα, Ελενίτσα [Γ. Μητσάκης]
TTITLE9=Καζαντζίδης Στέλιος - Στο σκαλί το τελευταίο [Μπάμπης Μπακάλης]
EXTD=
EXTT0=
EXTT1=
EXTT2=
EXTT3=
EXTT4=
EXTT5=
EXTT6=
EXTT7=
EXTT8=
EXTT9=
PLAYORDER=
